<mxfile host="65bd71144e">
    <diagram id="uTmK-iBE3lU_nenHrpvM" name="新規登録">
        <mxGraphModel dx="1020" dy="530" grid="1" gridSize="10" guides="1" tooltips="1" connect="1" arrows="1" fold="1" page="1" pageScale="1" pageWidth="827" pageHeight="1169" math="0" shadow="0">
            <root>
                <mxCell id="0"/>
                <mxCell id="1" parent="0"/>
                <mxCell id="3" value="ユーザー" style="shape=umlActor;verticalLabelPosition=bottom;verticalAlign=top;html=1;outlineConnect=0;" parent="1" vertex="1">
                    <mxGeometry x="80" y="200" width="40" height="80" as="geometry"/>
                </mxCell>
                <mxCell id="vmnZQYMHZ2b320NhvsvD-4" value="表示" style="ellipse;shape=umlControl;whiteSpace=wrap;html=1;" parent="1" vertex="1">
                    <mxGeometry x="380" y="290" width="80" height="90" as="geometry"/>
                </mxCell>
                <mxCell id="vmnZQYMHZ2b320NhvsvD-5" value="ユーザー" style="ellipse;shape=umlEntity;whiteSpace=wrap;html=1;" parent="1" vertex="1">
                    <mxGeometry x="640" y="200" width="80" height="80" as="geometry"/>
                </mxCell>
                <mxCell id="vmnZQYMHZ2b320NhvsvD-6" value="新規登録画面" style="shape=umlBoundary;whiteSpace=wrap;html=1;" parent="1" vertex="1">
                    <mxGeometry x="220" y="200" width="100" height="80" as="geometry"/>
                </mxCell>
                <mxCell id="vmnZQYMHZ2b320NhvsvD-7" value="メール&lt;br&gt;アドレス重複&lt;br&gt;エラー" style="shape=umlBoundary;whiteSpace=wrap;html=1;" parent="1" vertex="1">
                    <mxGeometry x="220" y="440" width="100" height="80" as="geometry"/>
                </mxCell>
                <mxCell id="vmnZQYMHZ2b320NhvsvD-8" value="ログイン画面" style="shape=umlBoundary;whiteSpace=wrap;html=1;" parent="1" vertex="1">
                    <mxGeometry x="220" y="320" width="100" height="80" as="geometry"/>
                </mxCell>
                <mxCell id="vmnZQYMHZ2b320NhvsvD-10" value="表示" style="ellipse;shape=umlControl;whiteSpace=wrap;html=1;" parent="1" vertex="1">
                    <mxGeometry x="440" y="390" width="80" height="90" as="geometry"/>
                </mxCell>
                <mxCell id="vmnZQYMHZ2b320NhvsvD-12" value="会員登録" style="ellipse;shape=umlControl;whiteSpace=wrap;html=1;" parent="1" vertex="1">
                    <mxGeometry x="520" y="190" width="80" height="90" as="geometry"/>
                </mxCell>
                <mxCell id="vmnZQYMHZ2b320NhvsvD-15" value="" style="endArrow=classic;html=1;" parent="1" source="3" edge="1">
                    <mxGeometry width="50" height="50" relative="1" as="geometry">
                        <mxPoint x="120" y="190" as="sourcePoint"/>
                        <mxPoint x="220" y="240" as="targetPoint"/>
                    </mxGeometry>
                </mxCell>
                <mxCell id="vmnZQYMHZ2b320NhvsvD-18" value="" style="endArrow=classic;html=1;exitX=1.007;exitY=0.458;exitDx=0;exitDy=0;exitPerimeter=0;entryX=-0.008;entryY=0.533;entryDx=0;entryDy=0;entryPerimeter=0;" parent="1" source="vmnZQYMHZ2b320NhvsvD-6" target="vmnZQYMHZ2b320NhvsvD-12" edge="1">
                    <mxGeometry width="50" height="50" relative="1" as="geometry">
                        <mxPoint x="430" y="260" as="sourcePoint"/>
                        <mxPoint x="480" y="210" as="targetPoint"/>
                    </mxGeometry>
                </mxCell>
                <mxCell id="vmnZQYMHZ2b320NhvsvD-19" value="" style="endArrow=classic;startArrow=classic;html=1;entryX=0;entryY=0.5;entryDx=0;entryDy=0;" parent="1" target="vmnZQYMHZ2b320NhvsvD-5" edge="1">
                    <mxGeometry width="50" height="50" relative="1" as="geometry">
                        <mxPoint x="600" y="240" as="sourcePoint"/>
                        <mxPoint x="480" y="210" as="targetPoint"/>
                    </mxGeometry>
                </mxCell>
                <mxCell id="vmnZQYMHZ2b320NhvsvD-20" value="" style="endArrow=classic;html=1;entryX=1.025;entryY=0.526;entryDx=0;entryDy=0;entryPerimeter=0;" parent="1" target="vmnZQYMHZ2b320NhvsvD-4" edge="1">
                    <mxGeometry width="50" height="50" relative="1" as="geometry">
                        <mxPoint x="560" y="280" as="sourcePoint"/>
                        <mxPoint x="480" y="250" as="targetPoint"/>
                    </mxGeometry>
                </mxCell>
                <mxCell id="vmnZQYMHZ2b320NhvsvD-21" value="" style="endArrow=classic;html=1;exitX=-0.025;exitY=0.578;exitDx=0;exitDy=0;exitPerimeter=0;" parent="1" source="vmnZQYMHZ2b320NhvsvD-4" edge="1">
                    <mxGeometry width="50" height="50" relative="1" as="geometry">
                        <mxPoint x="430" y="300" as="sourcePoint"/>
                        <mxPoint x="320" y="360" as="targetPoint"/>
                    </mxGeometry>
                </mxCell>
                <mxCell id="vmnZQYMHZ2b320NhvsvD-22" value="" style="endArrow=classic;html=1;entryX=0.867;entryY=0.244;entryDx=0;entryDy=0;entryPerimeter=0;" parent="1" target="vmnZQYMHZ2b320NhvsvD-10" edge="1">
                    <mxGeometry width="50" height="50" relative="1" as="geometry">
                        <mxPoint x="560" y="280" as="sourcePoint"/>
                        <mxPoint x="480" y="250" as="targetPoint"/>
                    </mxGeometry>
                </mxCell>
                <mxCell id="vmnZQYMHZ2b320NhvsvD-23" value="" style="endArrow=classic;html=1;exitX=-0.008;exitY=0.444;exitDx=0;exitDy=0;exitPerimeter=0;entryX=1.007;entryY=0.508;entryDx=0;entryDy=0;entryPerimeter=0;" parent="1" source="vmnZQYMHZ2b320NhvsvD-10" target="vmnZQYMHZ2b320NhvsvD-7" edge="1">
                    <mxGeometry width="50" height="50" relative="1" as="geometry">
                        <mxPoint x="400" y="390" as="sourcePoint"/>
                        <mxPoint x="450" y="340" as="targetPoint"/>
                    </mxGeometry>
                </mxCell>
                <mxCell id="vmnZQYMHZ2b320NhvsvD-25" value="登録情報を入力▶" style="text;html=1;strokeColor=none;fillColor=none;align=center;verticalAlign=middle;whiteSpace=wrap;rounded=0;" parent="1" vertex="1">
                    <mxGeometry x="120" y="250" width="100" height="30" as="geometry"/>
                </mxCell>
                <mxCell id="vmnZQYMHZ2b320NhvsvD-29" value="表示" style="ellipse;shape=umlControl;whiteSpace=wrap;html=1;" parent="1" vertex="1">
                    <mxGeometry x="480" y="510" width="80" height="90" as="geometry"/>
                </mxCell>
                <mxCell id="vmnZQYMHZ2b320NhvsvD-30" value="電話番号重複エラー" style="shape=umlBoundary;whiteSpace=wrap;html=1;" parent="1" vertex="1">
                    <mxGeometry x="220" y="560" width="100" height="80" as="geometry"/>
                </mxCell>
                <mxCell id="vmnZQYMHZ2b320NhvsvD-31" value="" style="endArrow=classic;html=1;entryX=1.027;entryY=0.458;entryDx=0;entryDy=0;entryPerimeter=0;exitX=0.017;exitY=0.504;exitDx=0;exitDy=0;exitPerimeter=0;" parent="1" source="vmnZQYMHZ2b320NhvsvD-29" target="vmnZQYMHZ2b320NhvsvD-30" edge="1">
                    <mxGeometry width="50" height="50" relative="1" as="geometry">
                        <mxPoint x="400" y="500" as="sourcePoint"/>
                        <mxPoint x="450" y="450" as="targetPoint"/>
                    </mxGeometry>
                </mxCell>
                <mxCell id="vmnZQYMHZ2b320NhvsvD-32" value="" style="endArrow=classic;html=1;entryX=0.867;entryY=0.23;entryDx=0;entryDy=0;entryPerimeter=0;" parent="1" target="vmnZQYMHZ2b320NhvsvD-29" edge="1">
                    <mxGeometry width="50" height="50" relative="1" as="geometry">
                        <mxPoint x="560" y="280" as="sourcePoint"/>
                        <mxPoint x="450" y="450" as="targetPoint"/>
                    </mxGeometry>
                </mxCell>
                <mxCell id="vmnZQYMHZ2b320NhvsvD-33" value="メール&lt;br&gt;アドレス&lt;br&gt;重複時▼" style="text;html=1;align=center;verticalAlign=middle;resizable=0;points=[];autosize=1;strokeColor=none;fillColor=none;" parent="1" vertex="1">
                    <mxGeometry x="485" y="340" width="70" height="60" as="geometry"/>
                </mxCell>
                <mxCell id="vmnZQYMHZ2b320NhvsvD-35" value="電話番号&lt;br&gt;重複時▼" style="text;html=1;align=center;verticalAlign=middle;resizable=0;points=[];autosize=1;strokeColor=none;fillColor=none;" parent="1" vertex="1">
                    <mxGeometry x="550" y="470" width="70" height="40" as="geometry"/>
                </mxCell>
                <mxCell id="vmnZQYMHZ2b320NhvsvD-36" value="正常完了時▼" style="text;html=1;align=center;verticalAlign=middle;resizable=0;points=[];autosize=1;strokeColor=none;fillColor=none;" parent="1" vertex="1">
                    <mxGeometry x="440" y="280" width="100" height="30" as="geometry"/>
                </mxCell>
            </root>
        </mxGraphModel>
    </diagram>
    <diagram id="dzQNooMkyhAn1drmeg_7" name="ログイン">
        <mxGraphModel dx="1088" dy="565" grid="1" gridSize="10" guides="1" tooltips="1" connect="1" arrows="1" fold="1" page="1" pageScale="1" pageWidth="827" pageHeight="1169" math="0" shadow="0">
            <root>
                <mxCell id="0"/>
                <mxCell id="1" parent="0"/>
                <mxCell id="m8YDXRKANyJtlhf9_SZa-1" value="ユーザー" style="shape=umlActor;verticalLabelPosition=bottom;verticalAlign=top;html=1;outlineConnect=0;" parent="1" vertex="1">
                    <mxGeometry x="80" y="200" width="40" height="80" as="geometry"/>
                </mxCell>
                <mxCell id="m8YDXRKANyJtlhf9_SZa-2" value="表示" style="ellipse;shape=umlControl;whiteSpace=wrap;html=1;" parent="1" vertex="1">
                    <mxGeometry x="380" y="290" width="80" height="90" as="geometry"/>
                </mxCell>
                <mxCell id="m8YDXRKANyJtlhf9_SZa-3" value="ユーザー" style="ellipse;shape=umlEntity;whiteSpace=wrap;html=1;" parent="1" vertex="1">
                    <mxGeometry x="640" y="200" width="80" height="80" as="geometry"/>
                </mxCell>
                <mxCell id="m8YDXRKANyJtlhf9_SZa-4" value="ログイン画面" style="shape=umlBoundary;whiteSpace=wrap;html=1;" parent="1" vertex="1">
                    <mxGeometry x="220" y="200" width="100" height="80" as="geometry"/>
                </mxCell>
                <mxCell id="m8YDXRKANyJtlhf9_SZa-5" value="無効な&lt;br&gt;ログイン&lt;br&gt;エラー" style="shape=umlBoundary;whiteSpace=wrap;html=1;" parent="1" vertex="1">
                    <mxGeometry x="220" y="440" width="100" height="80" as="geometry"/>
                </mxCell>
                <mxCell id="m8YDXRKANyJtlhf9_SZa-6" value="マイページ" style="shape=umlBoundary;whiteSpace=wrap;html=1;" parent="1" vertex="1">
                    <mxGeometry x="220" y="320" width="100" height="80" as="geometry"/>
                </mxCell>
                <mxCell id="m8YDXRKANyJtlhf9_SZa-7" value="表示" style="ellipse;shape=umlControl;whiteSpace=wrap;html=1;" parent="1" vertex="1">
                    <mxGeometry x="440" y="390" width="80" height="90" as="geometry"/>
                </mxCell>
                <mxCell id="m8YDXRKANyJtlhf9_SZa-8" value="ユーザー認証" style="ellipse;shape=umlControl;whiteSpace=wrap;html=1;" parent="1" vertex="1">
                    <mxGeometry x="520" y="190" width="80" height="90" as="geometry"/>
                </mxCell>
                <mxCell id="m8YDXRKANyJtlhf9_SZa-9" value="" style="endArrow=classic;html=1;" parent="1" source="m8YDXRKANyJtlhf9_SZa-1" edge="1">
                    <mxGeometry width="50" height="50" relative="1" as="geometry">
                        <mxPoint x="120" y="190" as="sourcePoint"/>
                        <mxPoint x="220" y="240" as="targetPoint"/>
                    </mxGeometry>
                </mxCell>
                <mxCell id="m8YDXRKANyJtlhf9_SZa-10" value="" style="endArrow=classic;html=1;exitX=1.007;exitY=0.458;exitDx=0;exitDy=0;exitPerimeter=0;entryX=-0.008;entryY=0.533;entryDx=0;entryDy=0;entryPerimeter=0;" parent="1" source="m8YDXRKANyJtlhf9_SZa-4" target="m8YDXRKANyJtlhf9_SZa-8" edge="1">
                    <mxGeometry width="50" height="50" relative="1" as="geometry">
                        <mxPoint x="430" y="260" as="sourcePoint"/>
                        <mxPoint x="480" y="210" as="targetPoint"/>
                    </mxGeometry>
                </mxCell>
                <mxCell id="m8YDXRKANyJtlhf9_SZa-11" value="" style="endArrow=classic;startArrow=classic;html=1;entryX=0;entryY=0.5;entryDx=0;entryDy=0;" parent="1" target="m8YDXRKANyJtlhf9_SZa-3" edge="1">
                    <mxGeometry width="50" height="50" relative="1" as="geometry">
                        <mxPoint x="600" y="240" as="sourcePoint"/>
                        <mxPoint x="480" y="210" as="targetPoint"/>
                    </mxGeometry>
                </mxCell>
                <mxCell id="m8YDXRKANyJtlhf9_SZa-12" value="" style="endArrow=classic;html=1;entryX=1.025;entryY=0.526;entryDx=0;entryDy=0;entryPerimeter=0;" parent="1" target="m8YDXRKANyJtlhf9_SZa-2" edge="1">
                    <mxGeometry width="50" height="50" relative="1" as="geometry">
                        <mxPoint x="560" y="280" as="sourcePoint"/>
                        <mxPoint x="480" y="250" as="targetPoint"/>
                    </mxGeometry>
                </mxCell>
                <mxCell id="m8YDXRKANyJtlhf9_SZa-13" value="" style="endArrow=classic;html=1;exitX=-0.025;exitY=0.578;exitDx=0;exitDy=0;exitPerimeter=0;" parent="1" source="m8YDXRKANyJtlhf9_SZa-2" edge="1">
                    <mxGeometry width="50" height="50" relative="1" as="geometry">
                        <mxPoint x="430" y="300" as="sourcePoint"/>
                        <mxPoint x="320" y="360" as="targetPoint"/>
                    </mxGeometry>
                </mxCell>
                <mxCell id="m8YDXRKANyJtlhf9_SZa-14" value="" style="endArrow=classic;html=1;entryX=0.867;entryY=0.244;entryDx=0;entryDy=0;entryPerimeter=0;" parent="1" target="m8YDXRKANyJtlhf9_SZa-7" edge="1">
                    <mxGeometry width="50" height="50" relative="1" as="geometry">
                        <mxPoint x="560" y="280" as="sourcePoint"/>
                        <mxPoint x="480" y="250" as="targetPoint"/>
                    </mxGeometry>
                </mxCell>
                <mxCell id="m8YDXRKANyJtlhf9_SZa-15" value="" style="endArrow=classic;html=1;exitX=-0.008;exitY=0.444;exitDx=0;exitDy=0;exitPerimeter=0;entryX=1.007;entryY=0.508;entryDx=0;entryDy=0;entryPerimeter=0;" parent="1" source="m8YDXRKANyJtlhf9_SZa-7" target="m8YDXRKANyJtlhf9_SZa-5" edge="1">
                    <mxGeometry width="50" height="50" relative="1" as="geometry">
                        <mxPoint x="400" y="390" as="sourcePoint"/>
                        <mxPoint x="450" y="340" as="targetPoint"/>
                    </mxGeometry>
                </mxCell>
                <mxCell id="m8YDXRKANyJtlhf9_SZa-16" value="ユーザー情報を入力▶" style="text;html=1;strokeColor=none;fillColor=none;align=center;verticalAlign=middle;whiteSpace=wrap;rounded=0;" parent="1" vertex="1">
                    <mxGeometry x="110" y="250" width="140" height="20" as="geometry"/>
                </mxCell>
                <mxCell id="m8YDXRKANyJtlhf9_SZa-17" value="表示" style="ellipse;shape=umlControl;whiteSpace=wrap;html=1;" parent="1" vertex="1">
                    <mxGeometry x="480" y="510" width="80" height="90" as="geometry"/>
                </mxCell>
                <mxCell id="m8YDXRKANyJtlhf9_SZa-18" value="ログイン&lt;br&gt;エラー" style="shape=umlBoundary;whiteSpace=wrap;html=1;" parent="1" vertex="1">
                    <mxGeometry x="220" y="560" width="100" height="80" as="geometry"/>
                </mxCell>
                <mxCell id="m8YDXRKANyJtlhf9_SZa-19" value="" style="endArrow=classic;html=1;entryX=1.027;entryY=0.458;entryDx=0;entryDy=0;entryPerimeter=0;exitX=0.017;exitY=0.504;exitDx=0;exitDy=0;exitPerimeter=0;" parent="1" source="m8YDXRKANyJtlhf9_SZa-17" target="m8YDXRKANyJtlhf9_SZa-18" edge="1">
                    <mxGeometry width="50" height="50" relative="1" as="geometry">
                        <mxPoint x="400" y="500" as="sourcePoint"/>
                        <mxPoint x="450" y="450" as="targetPoint"/>
                    </mxGeometry>
                </mxCell>
                <mxCell id="m8YDXRKANyJtlhf9_SZa-20" value="" style="endArrow=classic;html=1;entryX=0.867;entryY=0.23;entryDx=0;entryDy=0;entryPerimeter=0;" parent="1" target="m8YDXRKANyJtlhf9_SZa-17" edge="1">
                    <mxGeometry width="50" height="50" relative="1" as="geometry">
                        <mxPoint x="560" y="280" as="sourcePoint"/>
                        <mxPoint x="450" y="450" as="targetPoint"/>
                    </mxGeometry>
                </mxCell>
                <mxCell id="m8YDXRKANyJtlhf9_SZa-21" value="無効情報&lt;br&gt;入力時▼" style="text;html=1;align=center;verticalAlign=middle;resizable=0;points=[];autosize=1;strokeColor=none;fillColor=none;" parent="1" vertex="1">
                    <mxGeometry x="485" y="350" width="70" height="40" as="geometry"/>
                </mxCell>
                <mxCell id="m8YDXRKANyJtlhf9_SZa-22" value="エラー発生時▼" style="text;html=1;align=center;verticalAlign=middle;resizable=0;points=[];autosize=1;strokeColor=none;fillColor=none;" parent="1" vertex="1">
                    <mxGeometry x="530" y="475" width="110" height="30" as="geometry"/>
                </mxCell>
                <mxCell id="m8YDXRKANyJtlhf9_SZa-23" value="正常完了時▼" style="text;html=1;align=center;verticalAlign=middle;resizable=0;points=[];autosize=1;strokeColor=none;fillColor=none;" parent="1" vertex="1">
                    <mxGeometry x="440" y="280" width="100" height="30" as="geometry"/>
                </mxCell>
            </root>
        </mxGraphModel>
    </diagram>
    <diagram id="ipTaChnev_TjJ8NiurGC" name="ログアウト">
        <mxGraphModel dx="1166" dy="606" grid="1" gridSize="10" guides="1" tooltips="1" connect="1" arrows="1" fold="1" page="1" pageScale="1" pageWidth="827" pageHeight="1169" math="0" shadow="0">
            <root>
                <mxCell id="0"/>
                <mxCell id="1" parent="0"/>
                <mxCell id="PhhA4MEKjiTkgzpBqW-F-1" value="ユーザー" style="shape=umlActor;verticalLabelPosition=bottom;verticalAlign=top;html=1;outlineConnect=0;" parent="1" vertex="1">
                    <mxGeometry x="80" y="200" width="40" height="80" as="geometry"/>
                </mxCell>
                <mxCell id="PhhA4MEKjiTkgzpBqW-F-2" value="表示" style="ellipse;shape=umlControl;whiteSpace=wrap;html=1;" parent="1" vertex="1">
                    <mxGeometry x="390" y="250" width="80" height="90" as="geometry"/>
                </mxCell>
                <mxCell id="PhhA4MEKjiTkgzpBqW-F-3" value="ユーザー" style="ellipse;shape=umlEntity;whiteSpace=wrap;html=1;" parent="1" vertex="1">
                    <mxGeometry x="710" y="355" width="80" height="80" as="geometry"/>
                </mxCell>
                <mxCell id="PhhA4MEKjiTkgzpBqW-F-4" value="マイページ" style="shape=umlBoundary;whiteSpace=wrap;html=1;" parent="1" vertex="1">
                    <mxGeometry x="220" y="200" width="100" height="80" as="geometry"/>
                </mxCell>
                <mxCell id="PhhA4MEKjiTkgzpBqW-F-5" value="トップページ" style="shape=umlBoundary;whiteSpace=wrap;html=1;" parent="1" vertex="1">
                    <mxGeometry x="220" y="520" width="100" height="80" as="geometry"/>
                </mxCell>
                <mxCell id="PhhA4MEKjiTkgzpBqW-F-6" style="edgeStyle=none;html=1;" parent="1" source="PhhA4MEKjiTkgzpBqW-F-7" target="PhhA4MEKjiTkgzpBqW-F-9" edge="1">
                    <mxGeometry relative="1" as="geometry"/>
                </mxCell>
                <mxCell id="PhhA4MEKjiTkgzpBqW-F-7" value="ログアウト&lt;br&gt;ダイアログ" style="shape=umlBoundary;whiteSpace=wrap;html=1;" parent="1" vertex="1">
                    <mxGeometry x="220" y="355" width="100" height="80" as="geometry"/>
                </mxCell>
                <mxCell id="PhhA4MEKjiTkgzpBqW-F-8" value="表示" style="ellipse;shape=umlControl;whiteSpace=wrap;html=1;" parent="1" vertex="1">
                    <mxGeometry x="440" y="445" width="80" height="90" as="geometry"/>
                </mxCell>
                <mxCell id="PhhA4MEKjiTkgzpBqW-F-9" value="ログアウト&lt;br&gt;処理" style="ellipse;shape=umlControl;whiteSpace=wrap;html=1;" parent="1" vertex="1">
                    <mxGeometry x="550" y="350" width="80" height="90" as="geometry"/>
                </mxCell>
                <mxCell id="PhhA4MEKjiTkgzpBqW-F-10" value="" style="endArrow=classic;html=1;" parent="1" source="PhhA4MEKjiTkgzpBqW-F-1" edge="1">
                    <mxGeometry width="50" height="50" relative="1" as="geometry">
                        <mxPoint x="120" y="190" as="sourcePoint"/>
                        <mxPoint x="220" y="240" as="targetPoint"/>
                    </mxGeometry>
                </mxCell>
                <mxCell id="PhhA4MEKjiTkgzpBqW-F-11" value="" style="endArrow=classic;html=1;exitX=1.007;exitY=0.458;exitDx=0;exitDy=0;exitPerimeter=0;" parent="1" source="PhhA4MEKjiTkgzpBqW-F-4" target="PhhA4MEKjiTkgzpBqW-F-2" edge="1">
                    <mxGeometry width="50" height="50" relative="1" as="geometry">
                        <mxPoint x="430" y="260" as="sourcePoint"/>
                        <mxPoint x="480" y="210" as="targetPoint"/>
                    </mxGeometry>
                </mxCell>
                <mxCell id="PhhA4MEKjiTkgzpBqW-F-12" value="" style="endArrow=classic;startArrow=classic;html=1;entryX=0;entryY=0.5;entryDx=0;entryDy=0;" parent="1" source="PhhA4MEKjiTkgzpBqW-F-9" target="PhhA4MEKjiTkgzpBqW-F-3" edge="1">
                    <mxGeometry width="50" height="50" relative="1" as="geometry">
                        <mxPoint x="680" y="330" as="sourcePoint"/>
                        <mxPoint x="560" y="300" as="targetPoint"/>
                    </mxGeometry>
                </mxCell>
                <mxCell id="PhhA4MEKjiTkgzpBqW-F-13" value="" style="endArrow=classic;html=1;exitX=-0.025;exitY=0.578;exitDx=0;exitDy=0;exitPerimeter=0;" parent="1" source="PhhA4MEKjiTkgzpBqW-F-2" edge="1">
                    <mxGeometry width="50" height="50" relative="1" as="geometry">
                        <mxPoint x="430" y="300" as="sourcePoint"/>
                        <mxPoint x="320" y="360" as="targetPoint"/>
                    </mxGeometry>
                </mxCell>
                <mxCell id="PhhA4MEKjiTkgzpBqW-F-14" value="" style="endArrow=classic;html=1;entryX=0.867;entryY=0.244;entryDx=0;entryDy=0;entryPerimeter=0;" parent="1" source="PhhA4MEKjiTkgzpBqW-F-9" target="PhhA4MEKjiTkgzpBqW-F-8" edge="1">
                    <mxGeometry width="50" height="50" relative="1" as="geometry">
                        <mxPoint x="560" y="280" as="sourcePoint"/>
                        <mxPoint x="480" y="250" as="targetPoint"/>
                    </mxGeometry>
                </mxCell>
                <mxCell id="PhhA4MEKjiTkgzpBqW-F-15" value="" style="endArrow=classic;html=1;exitX=0;exitY=0.659;exitDx=0;exitDy=0;exitPerimeter=0;entryX=1.007;entryY=0.508;entryDx=0;entryDy=0;entryPerimeter=0;" parent="1" source="PhhA4MEKjiTkgzpBqW-F-8" target="PhhA4MEKjiTkgzpBqW-F-5" edge="1">
                    <mxGeometry width="50" height="50" relative="1" as="geometry">
                        <mxPoint x="400" y="390" as="sourcePoint"/>
                        <mxPoint x="450" y="340" as="targetPoint"/>
                    </mxGeometry>
                </mxCell>
                <mxCell id="PhhA4MEKjiTkgzpBqW-F-16" value="ログアウトを&lt;br&gt;クリック▶" style="text;html=1;strokeColor=none;fillColor=none;align=center;verticalAlign=middle;whiteSpace=wrap;rounded=0;" parent="1" vertex="1">
                    <mxGeometry x="120" y="210" width="100" height="30" as="geometry"/>
                </mxCell>
                <mxCell id="PhhA4MEKjiTkgzpBqW-F-17" value="表示" style="ellipse;shape=umlControl;whiteSpace=wrap;html=1;" parent="1" vertex="1">
                    <mxGeometry x="500" y="585" width="80" height="90" as="geometry"/>
                </mxCell>
                <mxCell id="PhhA4MEKjiTkgzpBqW-F-18" value="ログアウト&lt;br&gt;処理エラー" style="shape=umlBoundary;whiteSpace=wrap;html=1;" parent="1" vertex="1">
                    <mxGeometry x="220" y="640" width="100" height="80" as="geometry"/>
                </mxCell>
                <mxCell id="PhhA4MEKjiTkgzpBqW-F-19" value="" style="endArrow=classic;html=1;entryX=1.027;entryY=0.458;entryDx=0;entryDy=0;entryPerimeter=0;exitX=0.017;exitY=0.504;exitDx=0;exitDy=0;exitPerimeter=0;" parent="1" source="PhhA4MEKjiTkgzpBqW-F-17" target="PhhA4MEKjiTkgzpBqW-F-18" edge="1">
                    <mxGeometry width="50" height="50" relative="1" as="geometry">
                        <mxPoint x="400" y="500" as="sourcePoint"/>
                        <mxPoint x="450" y="450" as="targetPoint"/>
                    </mxGeometry>
                </mxCell>
                <mxCell id="PhhA4MEKjiTkgzpBqW-F-20" value="" style="endArrow=classic;html=1;entryX=0.867;entryY=0.23;entryDx=0;entryDy=0;entryPerimeter=0;" parent="1" source="PhhA4MEKjiTkgzpBqW-F-9" target="PhhA4MEKjiTkgzpBqW-F-17" edge="1">
                    <mxGeometry width="50" height="50" relative="1" as="geometry">
                        <mxPoint x="560" y="280" as="sourcePoint"/>
                        <mxPoint x="450" y="450" as="targetPoint"/>
                    </mxGeometry>
                </mxCell>
                <mxCell id="PhhA4MEKjiTkgzpBqW-F-21" value="エラー発生時▼" style="text;html=1;align=center;verticalAlign=middle;resizable=0;points=[];autosize=1;strokeColor=none;fillColor=none;" parent="1" vertex="1">
                    <mxGeometry x="550" y="525" width="110" height="30" as="geometry"/>
                </mxCell>
                <mxCell id="PhhA4MEKjiTkgzpBqW-F-22" value="正常完了時▼" style="text;html=1;align=center;verticalAlign=middle;resizable=0;points=[];autosize=1;strokeColor=none;fillColor=none;" parent="1" vertex="1">
                    <mxGeometry x="440" y="420" width="100" height="30" as="geometry"/>
                </mxCell>
                <mxCell id="PhhA4MEKjiTkgzpBqW-F-23" value="" style="endArrow=classic;html=1;entryX=0.58;entryY=1.025;entryDx=0;entryDy=0;entryPerimeter=0;exitX=0.564;exitY=-0.037;exitDx=0;exitDy=0;exitPerimeter=0;" parent="1" source="PhhA4MEKjiTkgzpBqW-F-7" target="PhhA4MEKjiTkgzpBqW-F-4" edge="1">
                    <mxGeometry width="50" height="50" relative="1" as="geometry">
                        <mxPoint x="278" y="340" as="sourcePoint"/>
                        <mxPoint x="340" y="370" as="targetPoint"/>
                    </mxGeometry>
                </mxCell>
                <mxCell id="PhhA4MEKjiTkgzpBqW-F-24" value="" style="endArrow=classic;html=1;entryX=0;entryY=0.458;entryDx=0;entryDy=0;entryPerimeter=0;" parent="1" target="PhhA4MEKjiTkgzpBqW-F-7" edge="1">
                    <mxGeometry width="50" height="50" relative="1" as="geometry">
                        <mxPoint x="120" y="240" as="sourcePoint"/>
                        <mxPoint x="340" y="370" as="targetPoint"/>
                    </mxGeometry>
                </mxCell>
                <mxCell id="PhhA4MEKjiTkgzpBqW-F-25" value="はい/いいえを選択▶" style="text;html=1;align=center;verticalAlign=middle;resizable=0;points=[];autosize=1;strokeColor=none;fillColor=none;" parent="1" vertex="1">
                    <mxGeometry x="105" y="300" width="130" height="30" as="geometry"/>
                </mxCell>
                <mxCell id="PhhA4MEKjiTkgzpBqW-F-26" value="いいえ&lt;br&gt;選択時▲" style="text;html=1;align=center;verticalAlign=middle;resizable=0;points=[];autosize=1;strokeColor=none;fillColor=none;" parent="1" vertex="1">
                    <mxGeometry x="280" y="290" width="70" height="40" as="geometry"/>
                </mxCell>
            </root>
        </mxGraphModel>
    </diagram>
    <diagram id="OVSRA5t2KKanojTYky73" name="登録情報変更">
        <mxGraphModel dx="317" dy="471" grid="1" gridSize="10" guides="1" tooltips="1" connect="1" arrows="1" fold="1" page="1" pageScale="1" pageWidth="827" pageHeight="1169" math="0" shadow="0">
            <root>
                <mxCell id="0"/>
                <mxCell id="1" parent="0"/>
                <mxCell id="6MrO-Xhiv8SNUKrjHHb--1" value="ユーザー" style="shape=umlActor;verticalLabelPosition=bottom;verticalAlign=top;html=1;outlineConnect=0;" parent="1" vertex="1">
                    <mxGeometry x="80" y="200" width="40" height="80" as="geometry"/>
                </mxCell>
                <mxCell id="6MrO-Xhiv8SNUKrjHHb--2" value="表示" style="ellipse;shape=umlControl;whiteSpace=wrap;html=1;" parent="1" vertex="1">
                    <mxGeometry x="380" y="290" width="80" height="90" as="geometry"/>
                </mxCell>
                <mxCell id="6MrO-Xhiv8SNUKrjHHb--3" value="ユーザー" style="ellipse;shape=umlEntity;whiteSpace=wrap;html=1;" parent="1" vertex="1">
                    <mxGeometry x="640" y="200" width="80" height="80" as="geometry"/>
                </mxCell>
                <mxCell id="6MrO-Xhiv8SNUKrjHHb--4" value="会員情報&lt;br&gt;変更画面" style="shape=umlBoundary;whiteSpace=wrap;html=1;" parent="1" vertex="1">
                    <mxGeometry x="220" y="200" width="100" height="80" as="geometry"/>
                </mxCell>
                <mxCell id="6MrO-Xhiv8SNUKrjHHb--5" value="メール&lt;br&gt;アドレス重複&lt;br&gt;エラー" style="shape=umlBoundary;whiteSpace=wrap;html=1;" parent="1" vertex="1">
                    <mxGeometry x="220" y="440" width="100" height="80" as="geometry"/>
                </mxCell>
                <mxCell id="6MrO-Xhiv8SNUKrjHHb--6" value="マイページ" style="shape=umlBoundary;whiteSpace=wrap;html=1;" parent="1" vertex="1">
                    <mxGeometry x="220" y="320" width="100" height="80" as="geometry"/>
                </mxCell>
                <mxCell id="6MrO-Xhiv8SNUKrjHHb--7" value="表示" style="ellipse;shape=umlControl;whiteSpace=wrap;html=1;" parent="1" vertex="1">
                    <mxGeometry x="400" y="390" width="80" height="90" as="geometry"/>
                </mxCell>
                <mxCell id="6MrO-Xhiv8SNUKrjHHb--8" value="入力情報&lt;br&gt;を更新" style="ellipse;shape=umlControl;whiteSpace=wrap;html=1;" parent="1" vertex="1">
                    <mxGeometry x="520" y="190" width="80" height="90" as="geometry"/>
                </mxCell>
                <mxCell id="6MrO-Xhiv8SNUKrjHHb--9" value="" style="endArrow=classic;html=1;" parent="1" source="6MrO-Xhiv8SNUKrjHHb--1" edge="1">
                    <mxGeometry width="50" height="50" relative="1" as="geometry">
                        <mxPoint x="120" y="190" as="sourcePoint"/>
                        <mxPoint x="220" y="240" as="targetPoint"/>
                    </mxGeometry>
                </mxCell>
                <mxCell id="6MrO-Xhiv8SNUKrjHHb--10" value="" style="endArrow=classic;html=1;exitX=1.007;exitY=0.458;exitDx=0;exitDy=0;exitPerimeter=0;entryX=-0.008;entryY=0.533;entryDx=0;entryDy=0;entryPerimeter=0;" parent="1" source="6MrO-Xhiv8SNUKrjHHb--4" target="6MrO-Xhiv8SNUKrjHHb--8" edge="1">
                    <mxGeometry width="50" height="50" relative="1" as="geometry">
                        <mxPoint x="430" y="260" as="sourcePoint"/>
                        <mxPoint x="480" y="210" as="targetPoint"/>
                    </mxGeometry>
                </mxCell>
                <mxCell id="6MrO-Xhiv8SNUKrjHHb--11" value="" style="endArrow=classic;startArrow=classic;html=1;entryX=0;entryY=0.5;entryDx=0;entryDy=0;" parent="1" target="6MrO-Xhiv8SNUKrjHHb--3" edge="1">
                    <mxGeometry width="50" height="50" relative="1" as="geometry">
                        <mxPoint x="600" y="240" as="sourcePoint"/>
                        <mxPoint x="480" y="210" as="targetPoint"/>
                    </mxGeometry>
                </mxCell>
                <mxCell id="6MrO-Xhiv8SNUKrjHHb--12" value="" style="endArrow=classic;html=1;entryX=1.025;entryY=0.526;entryDx=0;entryDy=0;entryPerimeter=0;" parent="1" target="6MrO-Xhiv8SNUKrjHHb--2" edge="1">
                    <mxGeometry width="50" height="50" relative="1" as="geometry">
                        <mxPoint x="560" y="280" as="sourcePoint"/>
                        <mxPoint x="480" y="250" as="targetPoint"/>
                    </mxGeometry>
                </mxCell>
                <mxCell id="6MrO-Xhiv8SNUKrjHHb--13" value="" style="endArrow=classic;html=1;exitX=-0.025;exitY=0.578;exitDx=0;exitDy=0;exitPerimeter=0;" parent="1" source="6MrO-Xhiv8SNUKrjHHb--2" edge="1">
                    <mxGeometry width="50" height="50" relative="1" as="geometry">
                        <mxPoint x="430" y="300" as="sourcePoint"/>
                        <mxPoint x="320" y="360" as="targetPoint"/>
                    </mxGeometry>
                </mxCell>
                <mxCell id="6MrO-Xhiv8SNUKrjHHb--14" value="" style="endArrow=classic;html=1;entryX=0.867;entryY=0.244;entryDx=0;entryDy=0;entryPerimeter=0;" parent="1" target="6MrO-Xhiv8SNUKrjHHb--7" edge="1">
                    <mxGeometry width="50" height="50" relative="1" as="geometry">
                        <mxPoint x="560" y="280" as="sourcePoint"/>
                        <mxPoint x="480" y="250" as="targetPoint"/>
                    </mxGeometry>
                </mxCell>
                <mxCell id="6MrO-Xhiv8SNUKrjHHb--15" value="" style="endArrow=classic;html=1;exitX=-0.008;exitY=0.444;exitDx=0;exitDy=0;exitPerimeter=0;entryX=1.007;entryY=0.508;entryDx=0;entryDy=0;entryPerimeter=0;" parent="1" source="6MrO-Xhiv8SNUKrjHHb--7" target="6MrO-Xhiv8SNUKrjHHb--5" edge="1">
                    <mxGeometry width="50" height="50" relative="1" as="geometry">
                        <mxPoint x="400" y="390" as="sourcePoint"/>
                        <mxPoint x="450" y="340" as="targetPoint"/>
                    </mxGeometry>
                </mxCell>
                <mxCell id="6MrO-Xhiv8SNUKrjHHb--16" value="変更項目を入力し変更をクリック▶" style="text;html=1;strokeColor=none;fillColor=none;align=center;verticalAlign=middle;whiteSpace=wrap;rounded=0;" parent="1" vertex="1">
                    <mxGeometry x="120" y="250" width="100" height="30" as="geometry"/>
                </mxCell>
                <mxCell id="6MrO-Xhiv8SNUKrjHHb--17" value="表示" style="ellipse;shape=umlControl;whiteSpace=wrap;html=1;" parent="1" vertex="1">
                    <mxGeometry x="440" y="510" width="80" height="90" as="geometry"/>
                </mxCell>
                <mxCell id="6MrO-Xhiv8SNUKrjHHb--18" value="電話番号重複エラー" style="shape=umlBoundary;whiteSpace=wrap;html=1;" parent="1" vertex="1">
                    <mxGeometry x="220" y="560" width="100" height="80" as="geometry"/>
                </mxCell>
                <mxCell id="6MrO-Xhiv8SNUKrjHHb--19" value="" style="endArrow=classic;html=1;entryX=1.027;entryY=0.458;entryDx=0;entryDy=0;entryPerimeter=0;exitX=0.017;exitY=0.504;exitDx=0;exitDy=0;exitPerimeter=0;" parent="1" source="6MrO-Xhiv8SNUKrjHHb--17" target="6MrO-Xhiv8SNUKrjHHb--18" edge="1">
                    <mxGeometry width="50" height="50" relative="1" as="geometry">
                        <mxPoint x="400" y="500" as="sourcePoint"/>
                        <mxPoint x="450" y="450" as="targetPoint"/>
                    </mxGeometry>
                </mxCell>
                <mxCell id="6MrO-Xhiv8SNUKrjHHb--20" value="" style="endArrow=classic;html=1;entryX=0.867;entryY=0.23;entryDx=0;entryDy=0;entryPerimeter=0;" parent="1" target="6MrO-Xhiv8SNUKrjHHb--17" edge="1">
                    <mxGeometry width="50" height="50" relative="1" as="geometry">
                        <mxPoint x="560" y="280" as="sourcePoint"/>
                        <mxPoint x="450" y="450" as="targetPoint"/>
                    </mxGeometry>
                </mxCell>
                <mxCell id="6MrO-Xhiv8SNUKrjHHb--21" value="入力形式&lt;br&gt;不適切時▼" style="text;html=1;align=center;verticalAlign=middle;resizable=0;points=[];autosize=1;strokeColor=none;fillColor=none;" parent="1" vertex="1">
                    <mxGeometry x="460" y="350" width="80" height="40" as="geometry"/>
                </mxCell>
                <mxCell id="6MrO-Xhiv8SNUKrjHHb--22" value="必須情報&lt;br&gt;空欄時▼" style="text;html=1;align=center;verticalAlign=middle;resizable=0;points=[];autosize=1;strokeColor=none;fillColor=none;" parent="1" vertex="1">
                    <mxGeometry x="480" y="450" width="70" height="40" as="geometry"/>
                </mxCell>
                <mxCell id="6MrO-Xhiv8SNUKrjHHb--23" value="正常完了時▼" style="text;html=1;align=center;verticalAlign=middle;resizable=0;points=[];autosize=1;strokeColor=none;fillColor=none;" parent="1" vertex="1">
                    <mxGeometry x="440" y="280" width="100" height="30" as="geometry"/>
                </mxCell>
                <mxCell id="Bg8aLt_QO3ppTRzco24f-2" value="情報更新&lt;br&gt;エラー" style="shape=umlBoundary;whiteSpace=wrap;html=1;" parent="1" vertex="1">
                    <mxGeometry x="220" y="680" width="100" height="80" as="geometry"/>
                </mxCell>
                <mxCell id="Bg8aLt_QO3ppTRzco24f-3" value="表示" style="ellipse;shape=umlControl;whiteSpace=wrap;html=1;" parent="1" vertex="1">
                    <mxGeometry x="480" y="630" width="80" height="90" as="geometry"/>
                </mxCell>
                <mxCell id="Bg8aLt_QO3ppTRzco24f-4" value="" style="endArrow=classic;html=1;exitX=0.5;exitY=1.007;exitDx=0;exitDy=0;exitPerimeter=0;entryX=0.758;entryY=0.148;entryDx=0;entryDy=0;entryPerimeter=0;" parent="1" source="6MrO-Xhiv8SNUKrjHHb--8" target="Bg8aLt_QO3ppTRzco24f-3" edge="1">
                    <mxGeometry width="50" height="50" relative="1" as="geometry">
                        <mxPoint x="550" y="510" as="sourcePoint"/>
                        <mxPoint x="600" y="460" as="targetPoint"/>
                    </mxGeometry>
                </mxCell>
                <mxCell id="Bg8aLt_QO3ppTRzco24f-5" value="" style="endArrow=classic;html=1;exitX=-0.033;exitY=0.57;exitDx=0;exitDy=0;exitPerimeter=0;entryX=1.027;entryY=0.508;entryDx=0;entryDy=0;entryPerimeter=0;" parent="1" source="Bg8aLt_QO3ppTRzco24f-3" target="Bg8aLt_QO3ppTRzco24f-2" edge="1">
                    <mxGeometry width="50" height="50" relative="1" as="geometry">
                        <mxPoint x="550" y="640" as="sourcePoint"/>
                        <mxPoint x="600" y="590" as="targetPoint"/>
                    </mxGeometry>
                </mxCell>
                <mxCell id="YHgp0F3MNIoienxQIIId-1" value="エラー発生時▼" style="text;html=1;align=center;verticalAlign=middle;resizable=0;points=[];autosize=1;strokeColor=none;fillColor=none;" parent="1" vertex="1">
                    <mxGeometry x="500" y="590" width="110" height="30" as="geometry"/>
                </mxCell>
            </root>
        </mxGraphModel>
    </diagram>
    <diagram id="ECR1yzQu7yo3wDZo88gZ" name="システム退会">
        <mxGraphModel dx="356" dy="530" grid="1" gridSize="10" guides="1" tooltips="1" connect="1" arrows="1" fold="1" page="1" pageScale="1" pageWidth="827" pageHeight="1169" math="0" shadow="0">
            <root>
                <mxCell id="0"/>
                <mxCell id="1" parent="0"/>
                <mxCell id="T41Wbb58Z8REeeMgM_rK-1" value="ユーザー" style="shape=umlActor;verticalLabelPosition=bottom;verticalAlign=top;html=1;outlineConnect=0;" parent="1" vertex="1">
                    <mxGeometry x="80" y="200" width="40" height="80" as="geometry"/>
                </mxCell>
                <mxCell id="T41Wbb58Z8REeeMgM_rK-2" value="表示" style="ellipse;shape=umlControl;whiteSpace=wrap;html=1;" parent="1" vertex="1">
                    <mxGeometry x="390" y="250" width="80" height="90" as="geometry"/>
                </mxCell>
                <mxCell id="T41Wbb58Z8REeeMgM_rK-3" value="ユーザー" style="ellipse;shape=umlEntity;whiteSpace=wrap;html=1;" parent="1" vertex="1">
                    <mxGeometry x="710" y="355" width="80" height="80" as="geometry"/>
                </mxCell>
                <mxCell id="T41Wbb58Z8REeeMgM_rK-4" value="マイページ" style="shape=umlBoundary;whiteSpace=wrap;html=1;" parent="1" vertex="1">
                    <mxGeometry x="220" y="200" width="100" height="80" as="geometry"/>
                </mxCell>
                <mxCell id="T41Wbb58Z8REeeMgM_rK-5" value="トップページ" style="shape=umlBoundary;whiteSpace=wrap;html=1;" parent="1" vertex="1">
                    <mxGeometry x="220" y="520" width="100" height="80" as="geometry"/>
                </mxCell>
                <mxCell id="T41Wbb58Z8REeeMgM_rK-6" style="edgeStyle=none;html=1;" parent="1" source="T41Wbb58Z8REeeMgM_rK-7" target="T41Wbb58Z8REeeMgM_rK-9" edge="1">
                    <mxGeometry relative="1" as="geometry"/>
                </mxCell>
                <mxCell id="T41Wbb58Z8REeeMgM_rK-7" value="退会&lt;br&gt;ダイアログ" style="shape=umlBoundary;whiteSpace=wrap;html=1;" parent="1" vertex="1">
                    <mxGeometry x="220" y="355" width="100" height="80" as="geometry"/>
                </mxCell>
                <mxCell id="T41Wbb58Z8REeeMgM_rK-8" value="表示" style="ellipse;shape=umlControl;whiteSpace=wrap;html=1;" parent="1" vertex="1">
                    <mxGeometry x="440" y="445" width="80" height="90" as="geometry"/>
                </mxCell>
                <mxCell id="T41Wbb58Z8REeeMgM_rK-9" value="ユーザー情報を削除" style="ellipse;shape=umlControl;whiteSpace=wrap;html=1;" parent="1" vertex="1">
                    <mxGeometry x="550" y="350" width="80" height="90" as="geometry"/>
                </mxCell>
                <mxCell id="T41Wbb58Z8REeeMgM_rK-10" value="" style="endArrow=classic;html=1;" parent="1" source="T41Wbb58Z8REeeMgM_rK-1" edge="1">
                    <mxGeometry width="50" height="50" relative="1" as="geometry">
                        <mxPoint x="120" y="190" as="sourcePoint"/>
                        <mxPoint x="220" y="240" as="targetPoint"/>
                    </mxGeometry>
                </mxCell>
                <mxCell id="T41Wbb58Z8REeeMgM_rK-11" value="" style="endArrow=classic;html=1;exitX=1.007;exitY=0.458;exitDx=0;exitDy=0;exitPerimeter=0;" parent="1" source="T41Wbb58Z8REeeMgM_rK-4" target="T41Wbb58Z8REeeMgM_rK-2" edge="1">
                    <mxGeometry width="50" height="50" relative="1" as="geometry">
                        <mxPoint x="430" y="260" as="sourcePoint"/>
                        <mxPoint x="480" y="210" as="targetPoint"/>
                    </mxGeometry>
                </mxCell>
                <mxCell id="T41Wbb58Z8REeeMgM_rK-12" value="" style="endArrow=classic;startArrow=classic;html=1;entryX=0;entryY=0.5;entryDx=0;entryDy=0;" parent="1" source="T41Wbb58Z8REeeMgM_rK-9" target="T41Wbb58Z8REeeMgM_rK-3" edge="1">
                    <mxGeometry width="50" height="50" relative="1" as="geometry">
                        <mxPoint x="680" y="330" as="sourcePoint"/>
                        <mxPoint x="560" y="300" as="targetPoint"/>
                    </mxGeometry>
                </mxCell>
                <mxCell id="T41Wbb58Z8REeeMgM_rK-13" value="" style="endArrow=classic;html=1;exitX=-0.025;exitY=0.578;exitDx=0;exitDy=0;exitPerimeter=0;" parent="1" source="T41Wbb58Z8REeeMgM_rK-2" edge="1">
                    <mxGeometry width="50" height="50" relative="1" as="geometry">
                        <mxPoint x="430" y="300" as="sourcePoint"/>
                        <mxPoint x="320" y="360" as="targetPoint"/>
                    </mxGeometry>
                </mxCell>
                <mxCell id="T41Wbb58Z8REeeMgM_rK-14" value="" style="endArrow=classic;html=1;entryX=0.867;entryY=0.244;entryDx=0;entryDy=0;entryPerimeter=0;" parent="1" source="T41Wbb58Z8REeeMgM_rK-9" target="T41Wbb58Z8REeeMgM_rK-8" edge="1">
                    <mxGeometry width="50" height="50" relative="1" as="geometry">
                        <mxPoint x="560" y="280" as="sourcePoint"/>
                        <mxPoint x="480" y="250" as="targetPoint"/>
                    </mxGeometry>
                </mxCell>
                <mxCell id="T41Wbb58Z8REeeMgM_rK-15" value="" style="endArrow=classic;html=1;exitX=0;exitY=0.659;exitDx=0;exitDy=0;exitPerimeter=0;entryX=1.007;entryY=0.508;entryDx=0;entryDy=0;entryPerimeter=0;" parent="1" source="T41Wbb58Z8REeeMgM_rK-8" target="T41Wbb58Z8REeeMgM_rK-5" edge="1">
                    <mxGeometry width="50" height="50" relative="1" as="geometry">
                        <mxPoint x="400" y="390" as="sourcePoint"/>
                        <mxPoint x="450" y="340" as="targetPoint"/>
                    </mxGeometry>
                </mxCell>
                <mxCell id="T41Wbb58Z8REeeMgM_rK-16" value="退会をクリック▶" style="text;html=1;strokeColor=none;fillColor=none;align=center;verticalAlign=middle;whiteSpace=wrap;rounded=0;" parent="1" vertex="1">
                    <mxGeometry x="120" y="210" width="100" height="30" as="geometry"/>
                </mxCell>
                <mxCell id="T41Wbb58Z8REeeMgM_rK-17" value="表示" style="ellipse;shape=umlControl;whiteSpace=wrap;html=1;" parent="1" vertex="1">
                    <mxGeometry x="500" y="585" width="80" height="90" as="geometry"/>
                </mxCell>
                <mxCell id="T41Wbb58Z8REeeMgM_rK-18" value="退会処理&lt;br&gt;エラー" style="shape=umlBoundary;whiteSpace=wrap;html=1;" parent="1" vertex="1">
                    <mxGeometry x="220" y="640" width="100" height="80" as="geometry"/>
                </mxCell>
                <mxCell id="T41Wbb58Z8REeeMgM_rK-19" value="" style="endArrow=classic;html=1;entryX=1.027;entryY=0.458;entryDx=0;entryDy=0;entryPerimeter=0;exitX=0.017;exitY=0.504;exitDx=0;exitDy=0;exitPerimeter=0;" parent="1" source="T41Wbb58Z8REeeMgM_rK-17" target="T41Wbb58Z8REeeMgM_rK-18" edge="1">
                    <mxGeometry width="50" height="50" relative="1" as="geometry">
                        <mxPoint x="400" y="500" as="sourcePoint"/>
                        <mxPoint x="450" y="450" as="targetPoint"/>
                    </mxGeometry>
                </mxCell>
                <mxCell id="T41Wbb58Z8REeeMgM_rK-20" value="" style="endArrow=classic;html=1;entryX=0.867;entryY=0.23;entryDx=0;entryDy=0;entryPerimeter=0;" parent="1" source="T41Wbb58Z8REeeMgM_rK-9" target="T41Wbb58Z8REeeMgM_rK-17" edge="1">
                    <mxGeometry width="50" height="50" relative="1" as="geometry">
                        <mxPoint x="560" y="280" as="sourcePoint"/>
                        <mxPoint x="450" y="450" as="targetPoint"/>
                    </mxGeometry>
                </mxCell>
                <mxCell id="T41Wbb58Z8REeeMgM_rK-21" value="エラー発生時▼" style="text;html=1;align=center;verticalAlign=middle;resizable=0;points=[];autosize=1;strokeColor=none;fillColor=none;" parent="1" vertex="1">
                    <mxGeometry x="550" y="525" width="110" height="30" as="geometry"/>
                </mxCell>
                <mxCell id="T41Wbb58Z8REeeMgM_rK-22" value="正常完了時▼" style="text;html=1;align=center;verticalAlign=middle;resizable=0;points=[];autosize=1;strokeColor=none;fillColor=none;" parent="1" vertex="1">
                    <mxGeometry x="440" y="420" width="100" height="30" as="geometry"/>
                </mxCell>
                <mxCell id="T41Wbb58Z8REeeMgM_rK-23" value="" style="endArrow=classic;html=1;entryX=0.58;entryY=1.025;entryDx=0;entryDy=0;entryPerimeter=0;exitX=0.564;exitY=-0.037;exitDx=0;exitDy=0;exitPerimeter=0;" parent="1" source="T41Wbb58Z8REeeMgM_rK-7" target="T41Wbb58Z8REeeMgM_rK-4" edge="1">
                    <mxGeometry width="50" height="50" relative="1" as="geometry">
                        <mxPoint x="278" y="340" as="sourcePoint"/>
                        <mxPoint x="340" y="370" as="targetPoint"/>
                    </mxGeometry>
                </mxCell>
                <mxCell id="T41Wbb58Z8REeeMgM_rK-24" value="" style="endArrow=classic;html=1;entryX=0;entryY=0.458;entryDx=0;entryDy=0;entryPerimeter=0;" parent="1" target="T41Wbb58Z8REeeMgM_rK-7" edge="1">
                    <mxGeometry width="50" height="50" relative="1" as="geometry">
                        <mxPoint x="120" y="240" as="sourcePoint"/>
                        <mxPoint x="340" y="370" as="targetPoint"/>
                    </mxGeometry>
                </mxCell>
                <mxCell id="T41Wbb58Z8REeeMgM_rK-25" value="はい/いいえを選択▶" style="text;html=1;align=center;verticalAlign=middle;resizable=0;points=[];autosize=1;strokeColor=none;fillColor=none;" parent="1" vertex="1">
                    <mxGeometry x="105" y="300" width="130" height="30" as="geometry"/>
                </mxCell>
                <mxCell id="T41Wbb58Z8REeeMgM_rK-26" value="いいえ&lt;br&gt;選択時▲" style="text;html=1;align=center;verticalAlign=middle;resizable=0;points=[];autosize=1;strokeColor=none;fillColor=none;" parent="1" vertex="1">
                    <mxGeometry x="280" y="290" width="70" height="40" as="geometry"/>
                </mxCell>
                <mxCell id="hV1wHei3YdD9gMG41qcL-1" value="&lt;span style=&quot;color: rgb(240, 240, 240); font-family: Helvetica; font-size: 12px; font-style: normal; font-variant-ligatures: normal; font-variant-caps: normal; font-weight: 400; letter-spacing: normal; orphans: 2; text-align: center; text-indent: 0px; text-transform: none; widows: 2; word-spacing: 0px; -webkit-text-stroke-width: 0px; background-color: rgb(42, 37, 47); text-decoration-thickness: initial; text-decoration-style: initial; text-decoration-color: initial; float: none; display: inline !important;&quot;&gt;はい選択時▶&lt;/span&gt;" style="text;whiteSpace=wrap;html=1;" vertex="1" parent="1">
                    <mxGeometry x="360" y="370" width="110" height="40" as="geometry"/>
                </mxCell>
            </root>
        </mxGraphModel>
    </diagram>
    <diagram id="TEolQ7Deh9BqxUiyOhQK" name="イベント参加">
        <mxGraphModel dx="1166" dy="606" grid="1" gridSize="10" guides="1" tooltips="1" connect="1" arrows="1" fold="1" page="1" pageScale="1" pageWidth="827" pageHeight="1169" math="0" shadow="0">
            <root>
                <mxCell id="0"/>
                <mxCell id="1" parent="0"/>
                <mxCell id="msihx0L4T4g1ToQwv0Rq-1" value="ユーザー" style="shape=umlActor;verticalLabelPosition=bottom;verticalAlign=top;html=1;outlineConnect=0;" parent="1" vertex="1">
                    <mxGeometry x="80" y="280" width="40" height="80" as="geometry"/>
                </mxCell>
                <mxCell id="msihx0L4T4g1ToQwv0Rq-2" value="表示" style="ellipse;shape=umlControl;whiteSpace=wrap;html=1;" parent="1" vertex="1">
                    <mxGeometry x="380" y="290" width="80" height="90" as="geometry"/>
                </mxCell>
                <mxCell id="msihx0L4T4g1ToQwv0Rq-3" value="イベント" style="ellipse;shape=umlEntity;whiteSpace=wrap;html=1;" parent="1" vertex="1">
                    <mxGeometry x="640" y="200" width="80" height="80" as="geometry"/>
                </mxCell>
                <mxCell id="msihx0L4T4g1ToQwv0Rq-4" value="イベント&lt;br&gt;参加画面" style="shape=umlBoundary;whiteSpace=wrap;html=1;" parent="1" vertex="1">
                    <mxGeometry x="220" y="200" width="100" height="80" as="geometry"/>
                </mxCell>
                <mxCell id="msihx0L4T4g1ToQwv0Rq-5" value="無効な情報&lt;br&gt;エラー" style="shape=umlBoundary;whiteSpace=wrap;html=1;" parent="1" vertex="1">
                    <mxGeometry x="220" y="440" width="100" height="80" as="geometry"/>
                </mxCell>
                <mxCell id="msihx0L4T4g1ToQwv0Rq-6" value="イベント画面" style="shape=umlBoundary;whiteSpace=wrap;html=1;" parent="1" vertex="1">
                    <mxGeometry x="220" y="320" width="100" height="80" as="geometry"/>
                </mxCell>
                <mxCell id="msihx0L4T4g1ToQwv0Rq-7" value="表示" style="ellipse;shape=umlControl;whiteSpace=wrap;html=1;" parent="1" vertex="1">
                    <mxGeometry x="440" y="390" width="80" height="90" as="geometry"/>
                </mxCell>
                <mxCell id="msihx0L4T4g1ToQwv0Rq-8" value="イベント情報を取得" style="ellipse;shape=umlControl;whiteSpace=wrap;html=1;" parent="1" vertex="1">
                    <mxGeometry x="520" y="190" width="80" height="90" as="geometry"/>
                </mxCell>
                <mxCell id="msihx0L4T4g1ToQwv0Rq-9" value="" style="endArrow=classic;html=1;" parent="1" source="msihx0L4T4g1ToQwv0Rq-1" edge="1">
                    <mxGeometry width="50" height="50" relative="1" as="geometry">
                        <mxPoint x="120" y="190" as="sourcePoint"/>
                        <mxPoint x="220" y="240" as="targetPoint"/>
                    </mxGeometry>
                </mxCell>
                <mxCell id="msihx0L4T4g1ToQwv0Rq-10" value="" style="endArrow=classic;html=1;exitX=1.007;exitY=0.458;exitDx=0;exitDy=0;exitPerimeter=0;entryX=-0.008;entryY=0.533;entryDx=0;entryDy=0;entryPerimeter=0;" parent="1" source="msihx0L4T4g1ToQwv0Rq-4" target="msihx0L4T4g1ToQwv0Rq-8" edge="1">
                    <mxGeometry width="50" height="50" relative="1" as="geometry">
                        <mxPoint x="430" y="260" as="sourcePoint"/>
                        <mxPoint x="480" y="210" as="targetPoint"/>
                    </mxGeometry>
                </mxCell>
                <mxCell id="msihx0L4T4g1ToQwv0Rq-11" value="" style="endArrow=classic;startArrow=classic;html=1;entryX=0;entryY=0.5;entryDx=0;entryDy=0;" parent="1" target="msihx0L4T4g1ToQwv0Rq-3" edge="1">
                    <mxGeometry width="50" height="50" relative="1" as="geometry">
                        <mxPoint x="600" y="240" as="sourcePoint"/>
                        <mxPoint x="480" y="210" as="targetPoint"/>
                    </mxGeometry>
                </mxCell>
                <mxCell id="msihx0L4T4g1ToQwv0Rq-12" value="" style="endArrow=classic;html=1;entryX=1.025;entryY=0.526;entryDx=0;entryDy=0;entryPerimeter=0;" parent="1" target="msihx0L4T4g1ToQwv0Rq-2" edge="1">
                    <mxGeometry width="50" height="50" relative="1" as="geometry">
                        <mxPoint x="560" y="280" as="sourcePoint"/>
                        <mxPoint x="480" y="250" as="targetPoint"/>
                    </mxGeometry>
                </mxCell>
                <mxCell id="msihx0L4T4g1ToQwv0Rq-13" value="" style="endArrow=classic;html=1;exitX=-0.025;exitY=0.578;exitDx=0;exitDy=0;exitPerimeter=0;" parent="1" source="msihx0L4T4g1ToQwv0Rq-2" edge="1">
                    <mxGeometry width="50" height="50" relative="1" as="geometry">
                        <mxPoint x="430" y="300" as="sourcePoint"/>
                        <mxPoint x="320" y="360" as="targetPoint"/>
                    </mxGeometry>
                </mxCell>
                <mxCell id="msihx0L4T4g1ToQwv0Rq-14" value="" style="endArrow=classic;html=1;entryX=0.867;entryY=0.244;entryDx=0;entryDy=0;entryPerimeter=0;" parent="1" target="msihx0L4T4g1ToQwv0Rq-7" edge="1">
                    <mxGeometry width="50" height="50" relative="1" as="geometry">
                        <mxPoint x="560" y="280" as="sourcePoint"/>
                        <mxPoint x="480" y="250" as="targetPoint"/>
                    </mxGeometry>
                </mxCell>
                <mxCell id="msihx0L4T4g1ToQwv0Rq-15" value="" style="endArrow=classic;html=1;exitX=-0.008;exitY=0.444;exitDx=0;exitDy=0;exitPerimeter=0;entryX=1.007;entryY=0.508;entryDx=0;entryDy=0;entryPerimeter=0;" parent="1" source="msihx0L4T4g1ToQwv0Rq-7" target="msihx0L4T4g1ToQwv0Rq-5" edge="1">
                    <mxGeometry width="50" height="50" relative="1" as="geometry">
                        <mxPoint x="400" y="390" as="sourcePoint"/>
                        <mxPoint x="450" y="340" as="targetPoint"/>
                    </mxGeometry>
                </mxCell>
                <mxCell id="msihx0L4T4g1ToQwv0Rq-16" value="イベントIDとパスワードを入力▶" style="text;html=1;strokeColor=none;fillColor=none;align=center;verticalAlign=middle;whiteSpace=wrap;rounded=0;" parent="1" vertex="1">
                    <mxGeometry x="120" y="250" width="100" height="30" as="geometry"/>
                </mxCell>
                <mxCell id="msihx0L4T4g1ToQwv0Rq-17" value="表示" style="ellipse;shape=umlControl;whiteSpace=wrap;html=1;" parent="1" vertex="1">
                    <mxGeometry x="480" y="510" width="80" height="90" as="geometry"/>
                </mxCell>
                <mxCell id="msihx0L4T4g1ToQwv0Rq-18" value="イベント参加&lt;br&gt;エラー" style="shape=umlBoundary;whiteSpace=wrap;html=1;" parent="1" vertex="1">
                    <mxGeometry x="220" y="560" width="100" height="80" as="geometry"/>
                </mxCell>
                <mxCell id="msihx0L4T4g1ToQwv0Rq-19" value="" style="endArrow=classic;html=1;entryX=1.027;entryY=0.458;entryDx=0;entryDy=0;entryPerimeter=0;exitX=0.017;exitY=0.504;exitDx=0;exitDy=0;exitPerimeter=0;" parent="1" source="msihx0L4T4g1ToQwv0Rq-17" target="msihx0L4T4g1ToQwv0Rq-18" edge="1">
                    <mxGeometry width="50" height="50" relative="1" as="geometry">
                        <mxPoint x="400" y="500" as="sourcePoint"/>
                        <mxPoint x="450" y="450" as="targetPoint"/>
                    </mxGeometry>
                </mxCell>
                <mxCell id="msihx0L4T4g1ToQwv0Rq-20" value="" style="endArrow=classic;html=1;entryX=0.867;entryY=0.23;entryDx=0;entryDy=0;entryPerimeter=0;" parent="1" target="msihx0L4T4g1ToQwv0Rq-17" edge="1">
                    <mxGeometry width="50" height="50" relative="1" as="geometry">
                        <mxPoint x="560" y="280" as="sourcePoint"/>
                        <mxPoint x="450" y="450" as="targetPoint"/>
                    </mxGeometry>
                </mxCell>
                <mxCell id="msihx0L4T4g1ToQwv0Rq-21" value="無効なID&lt;br&gt;パスワード&lt;br&gt;入力時▼" style="text;html=1;align=center;verticalAlign=middle;resizable=0;points=[];autosize=1;strokeColor=none;fillColor=none;" parent="1" vertex="1">
                    <mxGeometry x="480" y="340" width="80" height="60" as="geometry"/>
                </mxCell>
                <mxCell id="msihx0L4T4g1ToQwv0Rq-22" value="エラー発生時▼" style="text;html=1;align=center;verticalAlign=middle;resizable=0;points=[];autosize=1;strokeColor=none;fillColor=none;" parent="1" vertex="1">
                    <mxGeometry x="530" y="475" width="110" height="30" as="geometry"/>
                </mxCell>
                <mxCell id="msihx0L4T4g1ToQwv0Rq-23" value="正常完了時▼" style="text;html=1;align=center;verticalAlign=middle;resizable=0;points=[];autosize=1;strokeColor=none;fillColor=none;" parent="1" vertex="1">
                    <mxGeometry x="510" y="400" width="100" height="30" as="geometry"/>
                </mxCell>
            </root>
        </mxGraphModel>
    </diagram>
    <diagram id="2z-BgR28wJ5oNUA0R-ZV" name="イベント退出">
        <mxGraphModel dx="1255" dy="652" grid="1" gridSize="10" guides="1" tooltips="1" connect="1" arrows="1" fold="1" page="1" pageScale="1" pageWidth="827" pageHeight="1169" math="0" shadow="0">
            <root>
                <mxCell id="0"/>
                <mxCell id="1" parent="0"/>
                <mxCell id="nUdygU3lFm32uS2ciTzF-1" value="ユーザー" style="shape=umlActor;verticalLabelPosition=bottom;verticalAlign=top;html=1;outlineConnect=0;" parent="1" vertex="1">
                    <mxGeometry x="80" y="200" width="40" height="80" as="geometry"/>
                </mxCell>
                <mxCell id="nUdygU3lFm32uS2ciTzF-2" value="表示" style="ellipse;shape=umlControl;whiteSpace=wrap;html=1;" parent="1" vertex="1">
                    <mxGeometry x="390" y="250" width="80" height="90" as="geometry"/>
                </mxCell>
                <mxCell id="nUdygU3lFm32uS2ciTzF-3" value="ユーザー" style="ellipse;shape=umlEntity;whiteSpace=wrap;html=1;" parent="1" vertex="1">
                    <mxGeometry x="710" y="355" width="80" height="80" as="geometry"/>
                </mxCell>
                <mxCell id="nUdygU3lFm32uS2ciTzF-4" value="イベント画面" style="shape=umlBoundary;whiteSpace=wrap;html=1;" parent="1" vertex="1">
                    <mxGeometry x="220" y="200" width="100" height="80" as="geometry"/>
                </mxCell>
                <mxCell id="nUdygU3lFm32uS2ciTzF-5" value="マイページ" style="shape=umlBoundary;whiteSpace=wrap;html=1;" parent="1" vertex="1">
                    <mxGeometry x="220" y="520" width="100" height="80" as="geometry"/>
                </mxCell>
                <mxCell id="XRThJl2XNFo5mvbpaokM-9" style="edgeStyle=none;html=1;startArrow=none;" parent="1" source="1nz1r_XTmpyUqj8MDxlB-2" target="nUdygU3lFm32uS2ciTzF-8" edge="1">
                    <mxGeometry relative="1" as="geometry"/>
                </mxCell>
                <mxCell id="nUdygU3lFm32uS2ciTzF-6" value="退出&lt;br&gt;ダイアログ" style="shape=umlBoundary;whiteSpace=wrap;html=1;" parent="1" vertex="1">
                    <mxGeometry x="220" y="355" width="100" height="80" as="geometry"/>
                </mxCell>
                <mxCell id="nUdygU3lFm32uS2ciTzF-7" value="表示" style="ellipse;shape=umlControl;whiteSpace=wrap;html=1;" parent="1" vertex="1">
                    <mxGeometry x="440" y="445" width="80" height="90" as="geometry"/>
                </mxCell>
                <mxCell id="nUdygU3lFm32uS2ciTzF-8" value="ユーザー情報の更新" style="ellipse;shape=umlControl;whiteSpace=wrap;html=1;" parent="1" vertex="1">
                    <mxGeometry x="550" y="350" width="80" height="90" as="geometry"/>
                </mxCell>
                <mxCell id="nUdygU3lFm32uS2ciTzF-9" value="" style="endArrow=classic;html=1;" parent="1" source="nUdygU3lFm32uS2ciTzF-1" edge="1">
                    <mxGeometry width="50" height="50" relative="1" as="geometry">
                        <mxPoint x="120" y="190" as="sourcePoint"/>
                        <mxPoint x="220" y="240" as="targetPoint"/>
                    </mxGeometry>
                </mxCell>
                <mxCell id="nUdygU3lFm32uS2ciTzF-10" value="" style="endArrow=classic;html=1;exitX=1.007;exitY=0.458;exitDx=0;exitDy=0;exitPerimeter=0;" parent="1" source="nUdygU3lFm32uS2ciTzF-4" target="nUdygU3lFm32uS2ciTzF-2" edge="1">
                    <mxGeometry width="50" height="50" relative="1" as="geometry">
                        <mxPoint x="430" y="260" as="sourcePoint"/>
                        <mxPoint x="480" y="210" as="targetPoint"/>
                    </mxGeometry>
                </mxCell>
                <mxCell id="nUdygU3lFm32uS2ciTzF-11" value="" style="endArrow=classic;startArrow=classic;html=1;entryX=0;entryY=0.5;entryDx=0;entryDy=0;" parent="1" source="nUdygU3lFm32uS2ciTzF-8" target="nUdygU3lFm32uS2ciTzF-3" edge="1">
                    <mxGeometry width="50" height="50" relative="1" as="geometry">
                        <mxPoint x="680" y="330" as="sourcePoint"/>
                        <mxPoint x="560" y="300" as="targetPoint"/>
                    </mxGeometry>
                </mxCell>
                <mxCell id="nUdygU3lFm32uS2ciTzF-13" value="" style="endArrow=classic;html=1;exitX=-0.025;exitY=0.578;exitDx=0;exitDy=0;exitPerimeter=0;" parent="1" source="nUdygU3lFm32uS2ciTzF-2" edge="1">
                    <mxGeometry width="50" height="50" relative="1" as="geometry">
                        <mxPoint x="430" y="300" as="sourcePoint"/>
                        <mxPoint x="320" y="360" as="targetPoint"/>
                    </mxGeometry>
                </mxCell>
                <mxCell id="nUdygU3lFm32uS2ciTzF-14" value="" style="endArrow=classic;html=1;entryX=0.867;entryY=0.244;entryDx=0;entryDy=0;entryPerimeter=0;" parent="1" source="nUdygU3lFm32uS2ciTzF-8" target="nUdygU3lFm32uS2ciTzF-7" edge="1">
                    <mxGeometry width="50" height="50" relative="1" as="geometry">
                        <mxPoint x="560" y="280" as="sourcePoint"/>
                        <mxPoint x="480" y="250" as="targetPoint"/>
                    </mxGeometry>
                </mxCell>
                <mxCell id="nUdygU3lFm32uS2ciTzF-15" value="" style="endArrow=classic;html=1;exitX=0;exitY=0.659;exitDx=0;exitDy=0;exitPerimeter=0;entryX=1.007;entryY=0.508;entryDx=0;entryDy=0;entryPerimeter=0;" parent="1" source="nUdygU3lFm32uS2ciTzF-7" target="nUdygU3lFm32uS2ciTzF-5" edge="1">
                    <mxGeometry width="50" height="50" relative="1" as="geometry">
                        <mxPoint x="400" y="390" as="sourcePoint"/>
                        <mxPoint x="450" y="340" as="targetPoint"/>
                    </mxGeometry>
                </mxCell>
                <mxCell id="nUdygU3lFm32uS2ciTzF-16" value="退出をクリック▶" style="text;html=1;strokeColor=none;fillColor=none;align=center;verticalAlign=middle;whiteSpace=wrap;rounded=0;" parent="1" vertex="1">
                    <mxGeometry x="120" y="210" width="100" height="30" as="geometry"/>
                </mxCell>
                <mxCell id="nUdygU3lFm32uS2ciTzF-17" value="表示" style="ellipse;shape=umlControl;whiteSpace=wrap;html=1;" parent="1" vertex="1">
                    <mxGeometry x="500" y="585" width="80" height="90" as="geometry"/>
                </mxCell>
                <mxCell id="nUdygU3lFm32uS2ciTzF-18" value="退出処理&lt;br&gt;エラー" style="shape=umlBoundary;whiteSpace=wrap;html=1;" parent="1" vertex="1">
                    <mxGeometry x="220" y="640" width="100" height="80" as="geometry"/>
                </mxCell>
                <mxCell id="nUdygU3lFm32uS2ciTzF-19" value="" style="endArrow=classic;html=1;entryX=1.027;entryY=0.458;entryDx=0;entryDy=0;entryPerimeter=0;exitX=0.017;exitY=0.504;exitDx=0;exitDy=0;exitPerimeter=0;" parent="1" source="nUdygU3lFm32uS2ciTzF-17" target="nUdygU3lFm32uS2ciTzF-18" edge="1">
                    <mxGeometry width="50" height="50" relative="1" as="geometry">
                        <mxPoint x="400" y="500" as="sourcePoint"/>
                        <mxPoint x="450" y="450" as="targetPoint"/>
                    </mxGeometry>
                </mxCell>
                <mxCell id="nUdygU3lFm32uS2ciTzF-20" value="" style="endArrow=classic;html=1;entryX=0.867;entryY=0.23;entryDx=0;entryDy=0;entryPerimeter=0;" parent="1" source="nUdygU3lFm32uS2ciTzF-8" target="nUdygU3lFm32uS2ciTzF-17" edge="1">
                    <mxGeometry width="50" height="50" relative="1" as="geometry">
                        <mxPoint x="560" y="280" as="sourcePoint"/>
                        <mxPoint x="450" y="450" as="targetPoint"/>
                    </mxGeometry>
                </mxCell>
                <mxCell id="nUdygU3lFm32uS2ciTzF-22" value="エラー発生時▼" style="text;html=1;align=center;verticalAlign=middle;resizable=0;points=[];autosize=1;strokeColor=none;fillColor=none;" parent="1" vertex="1">
                    <mxGeometry x="550" y="525" width="110" height="30" as="geometry"/>
                </mxCell>
                <mxCell id="nUdygU3lFm32uS2ciTzF-23" value="正常完了時▼" style="text;html=1;align=center;verticalAlign=middle;resizable=0;points=[];autosize=1;strokeColor=none;fillColor=none;" parent="1" vertex="1">
                    <mxGeometry x="440" y="420" width="100" height="30" as="geometry"/>
                </mxCell>
                <mxCell id="XRThJl2XNFo5mvbpaokM-4" value="" style="endArrow=classic;html=1;entryX=0.58;entryY=1.025;entryDx=0;entryDy=0;entryPerimeter=0;exitX=0.564;exitY=-0.037;exitDx=0;exitDy=0;exitPerimeter=0;" parent="1" source="nUdygU3lFm32uS2ciTzF-6" target="nUdygU3lFm32uS2ciTzF-4" edge="1">
                    <mxGeometry width="50" height="50" relative="1" as="geometry">
                        <mxPoint x="278" y="340" as="sourcePoint"/>
                        <mxPoint x="340" y="370" as="targetPoint"/>
                    </mxGeometry>
                </mxCell>
                <mxCell id="XRThJl2XNFo5mvbpaokM-6" value="" style="endArrow=classic;html=1;entryX=0;entryY=0.458;entryDx=0;entryDy=0;entryPerimeter=0;" parent="1" target="nUdygU3lFm32uS2ciTzF-6" edge="1">
                    <mxGeometry width="50" height="50" relative="1" as="geometry">
                        <mxPoint x="120" y="240" as="sourcePoint"/>
                        <mxPoint x="340" y="370" as="targetPoint"/>
                    </mxGeometry>
                </mxCell>
                <mxCell id="XRThJl2XNFo5mvbpaokM-7" value="はい/いいえを選択▶" style="text;html=1;align=center;verticalAlign=middle;resizable=0;points=[];autosize=1;strokeColor=none;fillColor=none;" parent="1" vertex="1">
                    <mxGeometry x="105" y="300" width="130" height="30" as="geometry"/>
                </mxCell>
                <mxCell id="XRThJl2XNFo5mvbpaokM-8" value="いいえ&lt;br&gt;選択時▲" style="text;html=1;align=center;verticalAlign=middle;resizable=0;points=[];autosize=1;strokeColor=none;fillColor=none;" parent="1" vertex="1">
                    <mxGeometry x="280" y="290" width="70" height="40" as="geometry"/>
                </mxCell>
                <mxCell id="kf4udzupnGDTHoSuGCpW-1" value="" style="edgeStyle=none;html=1;endArrow=none;" edge="1" parent="1" source="nUdygU3lFm32uS2ciTzF-6" target="1nz1r_XTmpyUqj8MDxlB-2">
                    <mxGeometry relative="1" as="geometry">
                        <mxPoint x="320" y="395" as="sourcePoint"/>
                        <mxPoint x="550" y="395" as="targetPoint"/>
                    </mxGeometry>
                </mxCell>
                <mxCell id="1nz1r_XTmpyUqj8MDxlB-2" value="&lt;span style=&quot;color: rgb(240, 240, 240); font-family: Helvetica; font-size: 12px; font-style: normal; font-variant-ligatures: normal; font-variant-caps: normal; font-weight: 400; letter-spacing: normal; orphans: 2; text-align: center; text-indent: 0px; text-transform: none; widows: 2; word-spacing: 0px; -webkit-text-stroke-width: 0px; background-color: rgb(42, 37, 47); text-decoration-thickness: initial; text-decoration-style: initial; text-decoration-color: initial; float: none; display: inline !important;&quot;&gt;はい選択時▶&lt;/span&gt;" style="text;whiteSpace=wrap;html=1;" parent="1" vertex="1">
                    <mxGeometry x="360" y="370" width="130" height="40" as="geometry"/>
                </mxCell>
            </root>
        </mxGraphModel>
    </diagram>
</mxfile>